PathFileType	4	(X/Y/Z)	c:/Users/goper/Files/vsCode/490R/osim_files/A04/A04_Static02.trc
DataRate	CameraRate	NumFrames	NumMarkers	Units                	OrigDataRate	OrigDataStartFrame	OrigNumFrames
120.00	120.00	7	36	mm	120.0	535	855
                Frame#	Time	LPSIS			LASIS			LTH1			LTH2			LTH3			LTH4			LLFE			LMFE			LSH1			LSH2			LSH3			LSH4			LLMAL			LMMAL			LCAL			LMTP5			LTOE			LMTP1			RPSIS			RASIS			RTH1			RTH2			RTH3			RTH4			RLFE			RMFE			RSH1			RSH2			RSH3			RSH4			RLMAL			RMMAL			RCAL			RMTP1			RTOE			RMTP5		
		X1	Y1	Z1	X2	Y2	Z2	X3	Y3	Z3	X4	Y4	Z4	X5	Y5	Z5	X6	Y6	Z6	X7	Y7	Z7	X8	Y8	Z8	X9	Y9	Z9	X10	Y10	Z10	X11	Y11	Z11	X12	Y12	Z12	X13	Y13	Z13	X14	Y14	Z14	X15	Y15	Z15	X16	Y16	Z16	X17	Y17	Z17	X18	Y18	Z18	X19	Y19	Z19	X20	Y20	Z20	X21	Y21	Z21	X22	Y22	Z22	X23	Y23	Z23	X24	Y24	Z24	X25	Y25	Z25	X26	Y26	Z26	X27	Y27	Z27	X28	Y28	Z28	X29	Y29	Z29	X30	Y30	Z30	X31	Y31	Z31	X32	Y32	Z32	X33	Y33	Z33	X34	Y34	Z34	X35	Y35	Z35	X36	Y36	Z36

535	4.45000	-276.94321	1065.78833	427.11224	-64.33266	1019.03217	321.93073	-168.55499	714.29773	285.52438	-166.07329	670.17859	281.91980	-107.38916	714.63019	284.08633	-112.14619	669.83362	280.43024	-144.74811	540.94513	277.59818	-115.77134	527.70856	413.61011	-196.49567	446.72540	272.74460	-196.88268	403.22464	271.78458	-134.26701	438.12503	277.37357	-144.13377	395.70309	276.68170	-268.75531	121.81800	294.24139	-237.65254	120.13314	374.52301	-330.54404	84.25440	354.59277	-139.20815	60.49522	241.90724	-82.70225	70.94144	296.50888	-97.03547	55.60914	343.08035	-270.69006	1054.84045	532.86963	-39.60895	1028.55725	609.95587	-152.85974	724.85382	644.36401	-145.53954	683.25525	642.42023	-91.97646	729.75592	655.72522	-92.38232	682.34460	648.96857	-95.30096	546.30817	621.74121	-79.02070	541.78253	505.28290	-187.13994	344.68228	609.17938	-190.30344	299.26306	602.03021	-127.09190	334.15048	615.10388	-138.92039	288.69678	609.61926	-198.63326	103.74706	600.25171	-167.86313	113.58018	469.00186	-269.00455	63.88561	518.98755	-43.91976	53.67915	490.16663	-21.80980	73.15924	538.12048	-58.37782	47.47476	609.62048
536	4.45833	-277.07214	1065.83081	427.03418	-64.41262	1019.15265	321.85800	-168.84187	714.25665	285.46646	-166.67677	670.12396	281.96429	-107.88520	714.48010	284.04358	-112.38489	669.87909	280.43051	-144.98412	540.94702	277.64212	-115.99803	527.76208	413.62665	-196.29863	446.70242	272.77728	-197.05997	403.22751	271.78909	-134.42549	438.17300	277.39520	-144.34558	395.70786	276.70181	-268.76718	121.81161	294.25348	-237.65616	120.13319	374.51447	-330.54654	84.21318	354.62738	-139.21573	60.47495	241.91656	-82.71482	70.92464	296.54648	-97.03318	55.60286	343.09744	-270.83676	1054.81628	532.79572	-39.86361	1028.54785	609.94159	-153.22406	724.84271	644.24585	-146.06773	683.28772	642.27899	-92.49047	729.73364	655.67871	-92.92333	682.29236	648.85077	-95.85911	546.32294	621.59027	-79.71973	541.80597	505.13828	-187.48213	344.62881	609.13635	-191.30074	298.14441	600.43311	-127.41405	334.17798	615.01532	-139.55025	288.40097	609.75061	-198.73804	103.64660	600.22894	-167.95917	113.50969	468.97119	-269.03461	63.73026	519.02362	-43.94283	53.71078	490.17551	-21.88347	73.18784	538.12720	-58.40891	47.48758	609.62775
537	4.46667	-277.19440	1065.88757	426.94333	-64.52615	1019.25452	321.78360	-169.07156	714.26721	285.45587	-166.92757	670.16718	281.97339	-108.09617	714.51740	284.02628	-112.55642	669.94562	280.43600	-145.20667	540.97522	277.69330	-116.20380	527.81128	413.62875	-196.46521	446.71472	272.80399	-197.22504	403.25717	271.82748	-134.59029	438.20938	277.41608	-144.50888	395.72925	276.73398	-268.76395	121.80888	294.26367	-237.65761	120.12054	374.52460	-330.50467	84.19929	354.63922	-139.18294	60.46775	241.92715	-82.65721	70.92853	296.56277	-97.00267	55.60281	343.10001	-270.95200	1054.83215	532.67493	-40.02837	1028.59497	609.90033	-153.53575	724.85162	644.10468	-146.48447	683.34833	642.13782	-92.87753	729.62823	655.43042	-93.27811	682.34772	648.72705	-96.26447	546.32672	621.43726	-80.33101	541.82544	504.94757	-187.81203	344.60031	609.04553	-191.57507	298.08447	600.34937	-127.73685	334.19739	614.89148	-139.83359	288.39594	609.65961	-198.77937	103.59111	600.23059	-168.07092	113.43212	468.92337	-268.02264	62.91619	518.83588	-43.97213	53.72083	490.19702	-21.86373	73.23277	538.12164	-58.39523	47.51369	609.61633
538	4.47500	-277.32401	1065.94067	426.83176	-64.63136	1019.36365	321.72751	-169.17924	714.39502	285.50153	-167.12267	670.22406	281.96652	-108.31508	714.54901	283.98853	-112.71892	670.00671	280.42587	-145.41525	541.00287	277.70056	-116.36922	527.87903	413.63461	-196.68964	446.72995	272.83362	-197.38568	403.27411	271.82812	-134.76181	438.23978	277.43399	-144.68166	395.75024	276.75519	-268.77719	121.78652	294.25412	-237.65074	120.11312	374.55081	-330.78629	84.41595	354.73849	-139.21181	60.47189	241.91740	-82.68595	70.90563	296.56223	-97.02642	55.58318	343.10043	-270.36362	1054.62170	532.41669	-40.28062	1028.63257	609.84912	-154.04616	724.95978	644.01361	-146.93398	683.41272	641.98706	-93.29672	729.65576	655.27368	-93.66647	682.38593	648.58331	-96.82885	546.35840	621.27850	-80.97446	541.87439	504.73654	-188.20155	344.56732	608.93555	-192.00821	298.00653	600.24164	-128.14258	334.22305	614.77191	-140.20059	288.37677	609.55835	-198.91525	103.50294	600.18793	-168.21790	113.32123	468.89169	-268.11240	62.81987	518.83240	-44.00085	53.77409	490.17627	-21.91863	73.28554	538.10901	-58.41982	47.54652	609.60132
539	4.48333	-277.42429	1065.96277	426.72708	-64.76742	1019.44684	321.67612	-169.39264	714.43091	285.48538	-167.00128	670.34814	281.96991	-108.50197	714.59253	283.97583	-112.88573	670.05811	280.39578	-145.62622	541.06165	277.70322	-116.53555	527.95135	413.63953	-196.81744	446.72165	272.83105	-197.51401	403.30908	271.82440	-134.90347	438.27295	277.43460	-144.80023	395.79980	276.75354	-268.76459	121.79347	294.25107	-237.64404	120.11607	374.54578	-330.54608	84.20094	354.63461	-139.21155	60.46095	241.90637	-82.66287	70.91969	296.53409	-96.99695	55.59620	343.07770	-270.50854	1054.62463	532.26880	-40.46824	1028.67554	609.81000	-154.54008	725.05981	643.87939	-147.37465	683.50800	641.87714	-93.62086	729.71777	655.16748	-94.12700	682.39319	648.45612	-97.44267	546.41455	621.08057	-81.84281	541.90125	504.51053	-188.64970	344.51871	608.83032	-192.34206	297.93613	600.12616	-128.48694	334.28043	614.67554	-140.52850	288.39648	609.44678	-199.03400	103.43758	600.13867	-168.34616	113.23145	468.83521	-268.18335	62.70927	518.82812	-44.03313	53.79597	490.16711	-21.94906	73.34549	538.10944	-58.45914	47.56867	609.58661
540	4.49167	-277.59610	1065.99084	426.63074	-64.88836	1019.55646	321.63052	-169.56819	714.49030	285.43866	-167.19441	670.41864	281.93954	-108.67365	714.65729	283.92621	-113.05574	670.14838	280.35852	-145.86423	541.10437	277.71542	-116.71632	528.01892	413.63464	-196.88277	446.74908	272.86981	-197.62193	403.33701	271.81775	-135.08047	438.34174	277.44846	-144.96712	395.83954	276.75241	-268.74170	121.79300	294.28516	-237.61311	120.13242	374.54700	-330.51157	84.24471	354.62900	-139.18143	60.49143	241.91801	-82.66924	70.94643	296.52884	-96.97054	55.62939	343.08728	-271.47272	1054.94153	532.27710	-40.65601	1028.73682	609.77252	-154.96838	725.13202	643.75659	-147.82050	683.59882	641.77490	-94.01241	729.84277	655.01855	-94.58755	682.44971	648.25970	-98.04294	546.50421	620.87854	-82.54731	542.00305	504.26541	-189.10315	344.49945	608.70660	-192.64299	297.89886	600.02051	-128.86559	334.33234	614.55884	-140.83237	288.44693	609.35120	-199.08951	103.40210	600.11713	-168.46494	113.14494	468.79404	-268.23663	62.63300	518.84399	-44.03598	53.86061	490.14490	-21.96451	73.42081	538.09015	-58.45620	47.60505	609.58563
541	4.50000	-277.68576	1066.01831	426.52444	-65.04023	1019.69824	321.56924	-169.73792	714.55682	285.37616	-167.27483	670.49072	281.91187	-108.81760	714.75647	283.89481	-113.22573	670.23383	280.31830	-146.09273	541.13989	277.69763	-116.86526	528.07251	413.63791	-197.02899	446.77048	272.86664	-197.73030	403.36111	271.81738	-135.18192	438.43817	277.41501	-145.10085	395.90573	276.76450	-268.76965	121.82503	294.30396	-237.62123	120.14864	374.54883	-330.79779	84.49805	354.71756	-139.20964	60.49627	241.92915	-82.66589	70.97585	296.50479	-97.00187	55.63807	343.08371	-271.71231	1055.00415	532.13037	-40.89668	1028.79968	609.73315	-155.47060	725.20392	643.65302	-148.42072	683.68726	641.63165	-94.58512	729.97931	654.92560	-95.19230	682.44818	648.06506	-98.64764	546.59460	620.68658	-83.35330	542.06610	504.00092	-189.56209	344.47400	608.54517	-193.02631	297.84921	599.90613	-129.36899	334.35312	614.39294	-141.18042	288.51706	609.24634	-199.23466	103.34262	600.07074	-168.61649	113.05961	468.74402	-268.35269	62.51384	518.83826	-44.08784	53.92955	490.13696	-22.02434	73.48434	538.08746	-58.50748	47.64624	609.56897
